<?xml version="1.0" standalone="no"?><!DOCTYPE svg PUBLIC "-//W3C//DTD SVG 1.1//EN" "http://www.w3.org/Graphics/SVG/1.1/DTD/svg11.dtd"><svg t="1566432896128" class="icon" viewBox="0 0 1024 1024" version="1.1" xmlns="http://www.w3.org/2000/svg" p-id="8797" xmlns:xlink="http://www.w3.org/1999/xlink" width="32" height="32"><defs><style type="text/css"></style></defs><path d="M512.731429 0.402286c-19.529143 0-38.729143 1.170286-57.709715 3.328-45.531429 5.12-90.185143 16.457143-132.681143 33.572571 0 0 345.234286 340.48 354.377143 352.914286V27.392c-10.24-3.657143-20.882286-6.656-31.524571-9.398857C602.770286 6.582857 558.445714 0.365714 512.731429 0.365714z" fill="#FA5452" p-id="8798"></path><path d="M873.179429 148.224c-13.933714-13.860571-28.452571-26.331429-43.190858-38.4a516.132571 516.132571 0 0 0-117.723428-69.741714s2.523429 483.766857 0 499.017143l257.718857-256.804572a522.24 522.24 0 0 0-96.804571-134.070857z" fill="#6467F0" p-id="8799"></path><path d="M986.441143 323.108571s-341.577143 343.990857-354.157714 353.133715h364.251428c3.657143-10.276571 6.729143-20.845714 9.472-31.378286a502.710857 502.710857 0 0 0 14.262857-189.184 512.438857 512.438857 0 0 0-33.828571-132.571429z" fill="#5283F0" p-id="8800"></path><path d="M479.817143 714.313143l257.718857 256.804571c9.874286-4.790857 19.565714-10.020571 29.037714-15.616a501.101714 501.101714 0 0 0 105.910857-80.896c13.714286-13.604571 26.514286-28.306286 38.546286-43.081143a501.394286 501.394286 0 0 0 69.924572-117.211428c-0.109714 0-485.595429 2.523429-501.138286 0z" fill="#00B1FE" p-id="8801"></path><path d="M347.611429 633.782857v362.861714c10.276571 3.657143 20.918857 6.656 31.524571 9.398858a507.026286 507.026286 0 0 0 189.952 14.226285 506.88 506.88 0 0 0 132.681143-33.572571s-344.905143-340.48-354.157714-352.914286z" fill="#66D020" p-id="8802"></path><path d="M311.369143 482.267429l-257.682286 256.804571c4.681143 9.728 10.057143 19.456 15.652572 28.891429a504.612571 504.612571 0 0 0 81.115428 105.618285 508.708571 508.708571 0 0 0 160.914286 108.178286c0-0.365714-2.486857-484.132571 0-499.492571z" fill="#9AD122" p-id="8803"></path><path d="M18.029714 379.721143a500.553143 500.553143 0 0 0-14.299428 189.184c5.266286 46.409143 16.676571 90.624 33.718857 132.205714 0 0 341.211429-343.990857 354.157714-352.914286H27.501714c-3.657143 10.349714-6.802286 20.845714-9.508571 31.524572z" fill="#FFC817" p-id="8804"></path><path d="M255.049143 70.436571a501.504 501.504 0 0 0-105.947429 80.896c-13.933714 13.897143-26.514286 28.306286-38.509714 43.081143A501.211429 501.211429 0 0 0 40.594286 311.990857s485.485714-2.523429 501.138285 0L284.050286 55.186286c-9.801143 4.717714-19.529143 9.984-29.001143 15.250285z" fill="#FF7612" p-id="8805"></path></svg>