<?xml version="1.0" standalone="no"?><!DOCTYPE svg PUBLIC "-//W3C//DTD SVG 1.1//EN" "http://www.w3.org/Graphics/SVG/1.1/DTD/svg11.dtd"><svg t="1566436146489" class="icon" viewBox="0 0 1024 1024" version="1.1" xmlns="http://www.w3.org/2000/svg" p-id="69746" xmlns:xlink="http://www.w3.org/1999/xlink" width="32" height="32"><defs><style type="text/css"></style></defs><path d="M591.644444 324.266667c-56.888889 0-102.4 39.822222-108.088888 96.711111V568.888889c0 17.066667 0 34.133333-11.377778 51.2-17.066667 17.066667-39.822222 28.444444-62.577778 22.755555-22.755556 0-39.822222-17.066667-39.822222-39.822222-5.688889-28.444444 17.066667-45.511111 34.133333-56.888889 17.066667-11.377778 39.822222-17.066667 28.444445-39.822222-17.066667-28.444444-39.822222-17.066667-56.888889-11.377778-39.822222 17.066667-68.266667 51.2-68.266667 96.711111 0 39.822222 22.755556 79.644444 62.577778 96.711112 34.133333 17.066667 73.955556 17.066667 108.088889-5.688889 34.133333-17.066667 56.888889-51.2 56.888889-91.022223V432.355556c0-28.444444 22.755556-51.2 51.2-51.2 28.444444-5.688889 56.888889 5.688889 68.266666 34.133333 11.377778 28.444444-5.688889 45.511111-28.444444 62.577778-5.688889 5.688889-17.066667 11.377778-22.755556 17.066666-11.377778 5.688889-11.377778 17.066667-5.688889 28.444445 5.688889 5.688889 17.066667 11.377778 22.755556 11.377778 11.377778 0 22.755556-5.688889 34.133333-5.688889 45.511111-22.755556 68.266667-73.955556 56.888889-119.466667-22.755556-51.2-68.266667-85.333333-119.466667-85.333333zM512 85.333333C278.755556 85.333333 85.333333 278.755556 85.333333 512s193.422222 426.666667 426.666667 426.666667 426.666667-193.422222 426.666667-426.666667S745.244444 85.333333 512 85.333333z m0 785.066667c-199.111111 0-358.4-159.288889-358.4-358.4S312.888889 153.6 512 153.6s358.4 159.288889 358.4 358.4-159.288889 358.4-358.4 358.4z" fill="#bc52d5" p-id="69747"></path></svg>