<?xml version="1.0" standalone="no"?><!DOCTYPE svg PUBLIC "-//W3C//DTD SVG 1.1//EN" "http://www.w3.org/Graphics/SVG/1.1/DTD/svg11.dtd"><svg t="1566435635855" class="icon" viewBox="0 0 1024 1024" version="1.1" xmlns="http://www.w3.org/2000/svg" p-id="23154" xmlns:xlink="http://www.w3.org/1999/xlink" width="32" height="32"><defs><style type="text/css"></style></defs><path d="M877.568 277.070769H720.738462v185.186462h-37.494154V277.070769H369.624615v185.186462h-37.494153V277.070769h-145.723077l-11.106462 668.868923h702.227692V277.070769zM369.624615 238.395077h313.619693c0-79.596308-79.084308-160.295385-156.829539-160.295385-77.705846 0-154.387692 80.699077-156.790154 160.295385zM186.407385 984.615385C159.704615 984.615385 137.846154 962.205538 137.846154 934.872615V288.137846c0-27.372308 21.858462-49.742769 48.561231-49.742769h145.723077C332.130462 131.426462 422.006154 39.384615 526.414769 39.384615 630.862769 39.384615 720.738462 128.945231 720.738462 235.913846l145.723076 2.481231c26.702769 0 48.561231 22.370462 48.561231 49.742769v646.695385c0 27.372308-21.858462 49.782154-48.561231 49.782154H186.407385z" fill="#d81e06" p-id="23155"></path></svg>