<?xml version="1.0" standalone="no"?><!DOCTYPE svg PUBLIC "-//W3C//DTD SVG 1.1//EN" "http://www.w3.org/Graphics/SVG/1.1/DTD/svg11.dtd"><svg t="1566350573038" class="icon" viewBox="0 0 1025 1024" version="1.1" xmlns="http://www.w3.org/2000/svg" p-id="5665" width="48.046875" height="48" xmlns:xlink="http://www.w3.org/1999/xlink"><defs><style type="text/css"></style></defs><path d="M104.90242845 928.83381817l-0.08462109 0c-28.97180103 0-52.47467065-7.22663083-71.88309333-22.09816121C11.29713323 890.15236494-0.64409486 867.25997568-1.60031175 840.54030109l-0.15715328-3.92157754c-0.5838848-14.84010041-1.24755513-31.66637511 4.07510357-49.09345905 10.86049621-35.39211491 34.70185017-61.42756864 70.86038927-77.44148253 52.06607189-23.05921365 104.37270983-45.59619527 156.66604942-68.11867022l5.39640035-2.32586809c6.71165213-2.89645454 13.56353195-5.48343922 20.41541291-8.05470777 7.20245305-2.73204793 14.40369778-5.4169509 21.38855424-8.59265479 7.5506085-3.45011769 9.43765504-4.89713664 9.89581767-5.36859648-0.11605106 0 0.99852743-3.1249317 0.5838848-15.42761131-0.19221049-5.43387534-2.26300701-11.22799389-6.32118613-17.73655494l-8.71475086-13.94553515c-14.73492765-23.54759794-29.97032846-47.88942279-44.00894749-72.63984754-14.81834041-26.11765703-25.93874375-54.54667549-33.03118962-84.51942173-5.56322361-23.44847019-6.87726706-48.99674909-4.01586972-78.10757062 3.29175609-33.43978837 11.63417373-65.36727893 24.79756971-94.9169209 27.98415417-62.74644765 67.74996423-105.41233835 121.57977941-130.45530965 68.58166727-31.89485113 138.72640455-26.41141305 203.70080085 15.97764722 35.03549781 22.86337593 62.62918713 54.30006557 84.35743289 96.12095715 24.7153664 47.62951566 36.442624 98.96905614 34.86142123 152.5861103-1.04809131 36.10897522-13.72431246 68.099328-24.64887922 91.95518748-13.18999154 28.80256-30.01384846 55.16440803-46.10512896 79.70328008-2.82754958 4.29632739-5.72883968 8.55759758-8.63254756 12.80677888-6.63549269 9.74712605-12.91557774 18.94179954-17.99646208 28.39516956-5.78686521 10.77224903-7.88304782 21.34986979-6.22085006 31.50438628 10.29716309 8.34725433 23.7494784 13.89476295 36.67714503 18.84267178 22.61797547 8.70507975 45.27100814 17.31224121 67.92404196 25.904896 37.63940579 14.30457003 75.28485661 28.60793173 112.76469248 43.3017583 41.48966059 16.25447879 68.34231069 46.61769102 77.67237632 87.78941781 4.65778005 20.47102066 4.65778005 41.94782208-0.03384889 62.07915008-5.90291741 25.17352903-23.59957845 57.53863054-74.45919744 68.94553771-8.88278357 1.98496597-18.62991075 2.89645454-30.72103766 2.9109612-67.27487829 0.08220331-134.56909767 0.11484274-201.85485539 0.11484274l-294.11105109-0.03022165L104.90242845 928.83381817zM426.30132395 146.37153849c-20.85302386 0-42.34312363 5.18847374-63.87432334 15.4397002-40.53223424 19.25610496-70.88577536 53.05855545-92.82436552 103.32220074-10.56190578 24.2221477-17.277184 50.53564131-19.93428195 78.20669838-2.25937977 23.51979293-1.36481565 42.85568455 2.81908679 60.8666533 5.77961187 24.95593245 14.80141597 48.58694201 26.80913124 70.20759836 12.96393216 23.37472853 27.31927438 46.81715485 41.19348678 69.47381362l8.39923599 13.7315658c8.41374151 13.77992021 12.74150002 27.28542663 13.22021319 41.30591175 1.21370624 36.27821739-8.11152384 52.45170233-38.3997861 66.55076352-7.71138787 3.57704931-15.64883513 6.64274603-23.59232512 9.70844274-5.85093575 2.2666331-11.71154147 4.50304455-17.45126172 7.02595755l-5.18122041 2.28355754c-50.04000483 22.05101511-100.11385742 44.08510578-149.94714511 66.64626518-21.52273806 9.72415773-35.01494727 24.57271979-41.26601898 45.36167424-2.76952291 9.27808512-2.3391653 20.40815957-1.87495879 32.22124657l0.1511094 3.99169195c0.41585209 11.80099811 4.98900992 20.72730169 14.39523499 28.08811634 9.78822827 7.661824 22.09816121 11.24008163 38.75156764 11.24008163l0 24.52436537 0.04835442-24.52436537 140.27013348-0.04835441 282.35236352 0.0314311c64.57788643 0 129.14972899-0.03143111 193.72882488-0.11121664 7.86491392-0.01813277 13.78717355-0.52827705 18.6250752-1.62955832 25.75620437-5.89203683 32.01452942-19.54260765 34.58458966-30.76939208 2.89041067-12.66171449 2.88315733-26.28085419-0.03143111-39.34270577-5.44475477-24.5570048-20.13374578-41.32283619-44.93131549-51.25371108-35.81280256-14.3541339-71.7863845-28.32626461-107.76117475-42.2802614-21.80319687-8.46330539-43.61485539-16.92540245-65.38541284-25.48300004-15.83258283-6.21238841-34.03938816-13.95641571-49.77647047-27.39905991-7.8165595-6.67538546-13.56474141-16.44668928-15.4312374-26.12249258-4.10411691-21.26887595-0.47871317-43.54353152 10.48937358-64.37963208 6.07578567-11.54350877 13.10174322-22.06552178 19.89559865-32.253886 2.61841465-3.92762141 5.25375374-7.85524395 7.80084451-11.8469359 14.44963442-22.5140133 29.49886862-46.59109547 40.78730582-71.77187783 8.62166813-19.24159943 18.61661241-44.77174443 19.38424604-71.56395235 1.28503011-44.34017849-8.19251883-86.76429483-28.16669354-126.09128562-16.94111744-33.32252786-38.02503623-58.08745813-64.47392427-75.73093035C482.21765063 155.66533859 454.16217373 146.37153849 426.30132395 146.37153849zM880.36776277 369.54604203c36.70857501 0 73.42440448-0.07857607 110.13177117 0.06407054 4.99868103 0.01692445 10.17023147 0.36749653 14.96219534 1.67670442 12.58072064 3.43319325 19.17511111 13.31692203 18.77618347 27.03277284-0.39892765 13.06064213-8.32670265 22.68929934-21.58560029 25.57850055-4.56711395 0.97555911-9.32643954 1.3732773-14.00597845 1.3732773-72.92755854 0.07978553-145.84061042 0.11242496-218.7633334-0.04835442-5.64421859-0.01571499-11.53746489-0.57542201-16.85287026-2.29927253-12.98085661-4.18269298-18.79310791-14.17884786-17.78732715-28.67804615 0.79060195-11.79858034 9.10279794-21.075456 21.44416199-23.47023019 4.42204957-0.86192469 9.01334243-1.16656014 13.52243086-1.18227626C806.92764331 369.50010425 843.65193443 369.54604203 880.36776277 369.54604203zM903.74491022 554.30141725c-28.6043045 0-57.22553344 0.28650269-85.82137628-0.19341882-7.04892701-0.11242496-14.54513493-1.53164003-20.94973383-4.34226403-10.93786397-4.8548261-15.37683911-16.66912142-12.91678606-30.01868402 2.02002318-10.92094066 11.1216128-18.96718563 23.79058062-20.75510556 3.65562539-0.51135261 7.36927744-0.7676325 11.05633394-0.7676325 57.24366621-0.0471461 114.45227634-0.09670997 171.69473308 0.04956387 5.47618589 0.01450667 11.17601223 0.59113813 16.3971254 2.1372837 11.20865166 3.3050533 17.59632611 13.55627861 17.24454457 26.16842923-0.3348571 13.12592099-6.84100039 22.45115107-18.69639793 25.70905827-4.95878827 1.37448675-10.27540309 1.90034489-15.44816186 1.94749099C961.31497187 554.39691776 932.52691854 554.30141725 903.74491022 554.30141725zM944.38110663 675.61766229c-7.73919175 0-38.72738987 0.06769664-69.71437966-0.03022165-8.92751189-0.03263943-17.62775609-1.43855616-24.49414372-7.68116622-8.94201856-8.15987939-10.4905819-18.50660523-7.10695253-29.61975637 3.51297877-11.60757931 12.65446115-16.39591709 23.8401445-18.07382984 3.48033934-0.51135261 7.05738866-0.62377757 10.56915911-0.62377756 37.37949867-0.0471461 74.75778901-0.14385607 112.13728768 0.07978553 6.12293177 0.03143111 12.51060509 0.86192469 18.3071414 2.74534627 10.77587627 3.54440989 16.20491491 12.50214343 16.333056 24.6682203 0.12813995 12.00771527-5.26705095 21.44416199-15.71048675 25.16385792-5.73125746 2.02848597-12.10200747 3.0814117-18.20922311 3.20834333C971.13946567 675.87394333 963.57435165 675.61766229 944.38110663 675.61766229z" fill="#0b0b0b" p-id="5666"></path></svg>