<?xml version="1.0" standalone="no"?><!DOCTYPE svg PUBLIC "-//W3C//DTD SVG 1.1//EN" "http://www.w3.org/Graphics/SVG/1.1/DTD/svg11.dtd"><svg t="1566350638998" class="icon" viewBox="0 0 1024 1024" version="1.1" xmlns="http://www.w3.org/2000/svg" p-id="7158" width="48" height="48" xmlns:xlink="http://www.w3.org/1999/xlink"><defs><style type="text/css"></style></defs><path d="M512.28 63.94c-247.42 0-448 200.58-448 448s200.58 448 448 448 448-200.58 448-448-200.57-448-448-448z m0 856c-225.33 0-408-182.67-408-408s182.67-408 408-408 408 182.67 408 408-182.66 408-408 408z" p-id="7159" fill="#2c2c2c"></path><path d="M331.08 692.97l271.53-90.51 90.51-271.53-271.53 90.51-90.51 271.53z m316.59-316.59l-73.54 197.99-197.99 73.54 73.54-197.99 197.99-73.54z" p-id="7160" fill="#2c2c2c"></path></svg>