<?xml version="1.0" standalone="no"?><!DOCTYPE svg PUBLIC "-//W3C//DTD SVG 1.1//EN" "http://www.w3.org/Graphics/SVG/1.1/DTD/svg11.dtd"><svg t="1566474176239" class="icon" viewBox="0 0 1024 1024" version="1.1" xmlns="http://www.w3.org/2000/svg" p-id="2833" xmlns:xlink="http://www.w3.org/1999/xlink" width="48" height="48"><defs><style type="text/css"></style></defs><path d="M910.189714 959.341714H113.883429c-49.810286 0-38.912-77.824-38.912-77.824-1.170286-47.396571 38.912-77.750857 38.912-77.750857S318.171429 705.243429 347.282286 687.030857c23.771429-14.848 34.450286-43.885714 37.668571-54.198857C315.684571 568.027429 250.148571 460.068571 250.148571 395.337143v-97.28C247.661714 183.734857 373.979429 64.731429 483.401143 64.731429h38.912c102.180571-1.243429 237.056 114.102857 233.398857 233.325714v97.28c0 53.101714-44.470857 168.228571-116.077714 236.836571 2.925714 9.801143 13.677714 39.716571 37.814857 54.857143 29.110857 18.285714 232.740571 116.736 232.740571 116.736s40.009143 30.354286 38.765715 77.750857c0 0 10.971429 77.824-38.765715 77.824z" p-id="2834" fill="#1afa29"></path></svg>