<?xml version="1.0" standalone="no"?><!DOCTYPE svg PUBLIC "-//W3C//DTD SVG 1.1//EN" "http://www.w3.org/Graphics/SVG/1.1/DTD/svg11.dtd"><svg t="1566443889328" class="icon" viewBox="0 0 1024 1024" version="1.1" xmlns="http://www.w3.org/2000/svg" p-id="100930" xmlns:xlink="http://www.w3.org/1999/xlink" width="32" height="32"><defs><style type="text/css"></style></defs><path d="M234.688 224l66.304-99.52a64 64 0 0 1 53.248-28.48h315.52a64 64 0 0 1 53.248 28.48L789.312 224H896a128 128 0 0 1 128 128v448a128 128 0 0 1-128 128H128a128 128 0 0 1-128-128v-448a128 128 0 0 1 128-128h106.688zM512 768a192 192 0 1 0 0-384 192 192 0 0 0 0 384z" p-id="100931" fill="#2c2c2c"></path></svg>