<?xml version="1.0" standalone="no"?><!DOCTYPE svg PUBLIC "-//W3C//DTD SVG 1.1//EN" "http://www.w3.org/Graphics/SVG/1.1/DTD/svg11.dtd"><svg t="1566532699739" class="icon" viewBox="0 0 1024 1024" version="1.1" xmlns="http://www.w3.org/2000/svg" p-id="2767" width="32" height="32" xmlns:xlink="http://www.w3.org/1999/xlink"><defs><style type="text/css"></style></defs><path d="M340.995 863.668c132.961-137.777 125.284-133.501 152.323-133.501h427.109c22.274 0 40.406-17.841 40.406-39.788v-544.526c0-21.945-18.131-39.795-40.406-39.795h-814.636c-22.274 0-40.401 17.85-40.401 39.795v544.505c0 21.95 18.127 39.788 40.401 39.788h173.869c26.661 0.021 44.95 14.091 61.334 133.524M304.603 980.823c0 0-21.122-187.436-37.785-187.436h-189.044c-41.743 0-75.602-33.6-75.602-75.006v-601.723c0-41.404 33.86-75.002 75.602-75.002h869.522c41.748 0 75.607 33.599 75.607 75.002v601.723c0 41.408-33.86 75.006-75.607 75.006h-442.279c-17.971 0-200.413 187.436-200.413 187.436v0 0 0 0zM304.603 980.823z" p-id="2768" fill="#ffffff"></path></svg>