<?xml version="1.0" standalone="no"?><!DOCTYPE svg PUBLIC "-//W3C//DTD SVG 1.1//EN" "http://www.w3.org/Graphics/SVG/1.1/DTD/svg11.dtd"><svg t="1566280834519" class="icon" viewBox="0 0 1024 1024" version="1.1" xmlns="http://www.w3.org/2000/svg" p-id="18028" width="32" height="32" xmlns:xlink="http://www.w3.org/1999/xlink"><defs><style type="text/css"></style></defs><path d="M800 458.666667V341.333333h64v117.333334H981.333333v64h-117.333333V640h-64v-117.333333H682.666667v-64h117.333333z m-465.834667 68.266666C302.762667 489.728 277.333333 420.266667 277.333333 371.626667V298.666667c0-94.293333 76.586667-170.666667 170.666667-170.666667 94.293333 0 170.666667 76.501333 170.666667 170.666667v72.96c0 48.64-25.6 118.314667-56.832 155.392l-15.402667 18.261333c-25.173333 29.824-17.322667 67.754667 17.877333 84.906667l241.493334 117.845333c26.24 12.8 47.530667 46.634667 47.530666 76.074667v29.312c0 23.509333-19.2 42.581333-42.709333 42.581333H85.333333A42.581333 42.581333 0 0 1 42.666667 853.418667v-29.312c0-29.226667 21.248-63.274667 47.530666-76.117334l241.493334-117.845333c35.029333-17.066667 43.178667-54.954667 17.92-84.906667l-15.445334-18.304z" fill="#ffffff" p-id="18029"></path></svg>