<?xml version="1.0" standalone="no"?><!DOCTYPE svg PUBLIC "-//W3C//DTD SVG 1.1//EN" "http://www.w3.org/Graphics/SVG/1.1/DTD/svg11.dtd"><svg t="1566284638404" class="icon" viewBox="0 0 1024 1024" version="1.1" xmlns="http://www.w3.org/2000/svg" p-id="27902" width="32" height="32" xmlns:xlink="http://www.w3.org/1999/xlink"><defs><style type="text/css"></style></defs><path d="M512 138.552613C283.296093 138.552613 97.263116 289.384631 97.263116 474.803637c0 103.146997 56.382932 198.107725 155.232138 262.369941-22.409913 52.08514-61.704007 95.165384-111.435595 121.873089l-41.954632 22.512241 47.68502 2.967523c10.539822 0.61397 21.284301 1.023284 32.02878 1.023284 46.661737 0 93.630459-6.139702 139.678225-18.316778 50.652543-13.302688 97.621265-33.154392 139.780554-59.04347 17.805136 1.841911 35.917258 2.865194 53.722394 2.865194 228.703907 0 414.736884-150.832018 414.736884-336.251024C926.736884 289.384631 740.703907 138.552613 512 138.552613z" p-id="27903" fill="#ffffff"></path></svg>