<?xml version="1.0" standalone="no"?><!DOCTYPE svg PUBLIC "-//W3C//DTD SVG 1.1//EN" "http://www.w3.org/Graphics/SVG/1.1/DTD/svg11.dtd"><svg t="1566281078565" class="icon" viewBox="0 0 1024 1024" version="1.1" xmlns="http://www.w3.org/2000/svg" p-id="22899" width="32" height="32" xmlns:xlink="http://www.w3.org/1999/xlink"><defs><style type="text/css"></style></defs><path d="M210.618182 415.883636c-1.396364 58.647273 9.774545 146.850909-60.276364 146.850909-46.545455 0-49.105455-57.250909-49.105454-57.250909L69.818182 222.487273S48.174545 74.007273 260.887273 69.818182s235.287273 180.829091 235.287272 180.829091H674.909091a54.458182 54.458182 0 0 1 40.727273 58.647272c-1.396364 50.501818-35.141818 49.105455-35.141819 49.105455h-418.90909a52.130909 52.130909 0 0 0-50.967273 57.483636z m552.494545 540.392728c-212.945455 4.189091-235.287273-180.596364-235.287272-180.596364H349.090909a54.458182 54.458182 0 0 1-40.727273-58.88c1.396364-50.269091 35.141818-48.872727 35.141819-48.872727h418.90909A52.130909 52.130909 0 0 0 814.545455 610.443636c1.396364-58.88-9.774545-147.083636 60.276363-147.083636 47.709091 0 49.105455 57.483636 49.105455 57.483636L954.181818 803.607273s21.643636 148.48-191.069091 152.669091z" fill="#ffffff" p-id="22900"></path></svg>