<?xml version="1.0" standalone="no"?><!DOCTYPE svg PUBLIC "-//W3C//DTD SVG 1.1//EN" "http://www.w3.org/Graphics/SVG/1.1/DTD/svg11.dtd"><svg t="1566281410172" class="icon" viewBox="0 0 1024 1024" version="1.1" xmlns="http://www.w3.org/2000/svg" p-id="23774" width="32" height="32" xmlns:xlink="http://www.w3.org/1999/xlink"><defs><style type="text/css"></style></defs><path d="M149.333333 234.666667v213.333333H85.333333V202.666667a32 32 0 0 1 32-32h245.333334v64H149.333333zM149.333333 789.333333h213.333334v64H117.333333a32 32 0 0 1-32-32V576h64v213.333333zM443.264 601.12l256.448-256.437333 45.258667 45.248-256.448 256.448-45.258667 45.258666L277.333333 525.696l45.258667-45.248 120.672 120.672zM874.666667 234.666667H661.333333v-64h245.333334a32 32 0 0 1 32 32v245.333333h-64V234.666667zM874.666667 789.333333V576h64v245.333333a32 32 0 0 1-32 32H661.333333v-64h213.333334z" p-id="23775" fill="#ffffff"></path></svg>